<svg width="27" height="33" viewBox="0 0 27 33" fill="none" xmlns="http://www.w3.org/2000/svg">
<path fill-rule="evenodd" clip-rule="evenodd" d="M13.4616 15.7442L3.42188 23.1599L3.76414 29.777C3.85541 32.1501 5.24729 32.6673 5.93181 32.6293H20.421C21.9726 32.7205 22.5887 31.6785 22.7028 31.1461L22.931 29.2066L23.3873 23.1599L13.4616 15.7442ZM10.4956 21.905H13.0055V24.415H10.4956V21.905ZM16.6564 21.9051H14.1465V24.415H16.6564V21.9051ZM14.1465 25.5559H16.6564V28.0658H14.1465V25.5559ZM13.0055 25.5559H10.4955V28.0658H13.0055V25.5559Z" fill="white"/>
<path fill-rule="evenodd" clip-rule="evenodd" d="M2.39585 6.95938L3.30856 20.1936H3.34159L5.85446 18.2518L5.14066 10.0496C5.06449 9.17443 5.71223 8.40321 6.58742 8.32704C7.46261 8.25088 8.23383 8.89862 8.31 9.77381L8.84659 15.9397L11.924 13.5617L11.9282 9.62017C11.9292 8.74167 12.6421 8.03027 13.5206 8.03122C14.3991 8.03216 15.1105 8.74508 15.1095 9.62358L15.105 13.9032L18.2062 16.1466L18.8655 9.5347C18.9527 8.66054 19.732 8.02256 20.6062 8.10973C21.4803 8.1969 22.1183 8.97621 22.0311 9.85037L21.1882 18.3038L23.8006 20.1936H23.8444L24.8712 6.61712H26.9248V4.10718H25.7839V4.90579H1.14088V4.10718H0V6.95938H2.39585Z" fill="white"/>
<path fill-rule="evenodd" clip-rule="evenodd" d="M9.89182 0.684529C9.89182 0.306474 10.1983 0 10.5763 0H16.3481C16.7262 0 17.0326 0.306474 17.0326 0.684529V2.28176C17.0326 2.28177 17.0326 2.28178 17.0326 2.28179H25.5553V4.33538H1.36865V2.28179H9.89182C9.89182 2.28178 9.89182 2.28177 9.89182 2.28176V0.684529ZM10.3986 2.28179H16.5249C16.5552 2.18266 16.5715 2.07742 16.5715 1.96838V1.52771C16.5715 0.935975 16.0918 0.456277 15.5001 0.456277H11.4235C10.8318 0.456277 10.3521 0.935976 10.3521 1.52771V1.96839C10.3521 2.07742 10.3684 2.18266 10.3986 2.28179Z" fill="white"/>
</svg>
