<svg width="230" height="235" viewBox="0 0 230 235" fill="none" xmlns="http://www.w3.org/2000/svg">
<path fill-rule="evenodd" clip-rule="evenodd" d="M80.5566 44.59L15.2137 110.24L15.3685 110.417L37.1247 114.692L76.9412 73.2255C81.1897 68.801 88.2206 68.6582 92.6451 72.9067C97.0697 77.1552 97.2124 84.1861 92.9639 88.6107L63.0323 119.783L89.6765 125.018L110.408 106.915C115.029 102.88 122.045 103.355 126.079 107.976C130.114 112.596 129.639 119.612 125.019 123.647L102.511 143.301L104.983 169.911L142.756 142.973C147.751 139.412 154.686 140.573 158.248 145.567C161.81 150.561 160.648 157.497 155.654 161.059L107.36 195.499L109.443 217.918L109.643 218.147L185.702 161.114L195.145 171.904L208.334 160.363L203.088 154.368L198.891 158.041L85.5766 28.5528L89.7729 24.8805L84.5269 18.8857L69.5399 32.0009L80.5566 44.59Z" fill="white"/>
<path fill-rule="evenodd" clip-rule="evenodd" d="M147.997 55.1258C149.984 53.3874 153.003 53.5885 154.742 55.5751L181.282 85.903C183.02 87.8895 182.819 90.9092 180.832 92.6476L172.44 99.9919L211.63 144.776L200.84 154.219L89.6233 27.1289L100.414 17.686L139.604 62.4701L147.997 55.1258ZM141.937 65.1351L170.107 97.3265C170.767 97.0298 171.395 96.6317 171.967 96.1305L174.283 94.1042C177.392 91.3833 177.707 86.6569 174.986 83.5476L156.241 62.1272C153.52 59.0178 148.794 58.703 145.684 61.424L143.369 63.4503C142.796 63.9514 142.318 64.5206 141.937 65.1351Z" fill="white"/>
</svg>
