<svg width="131" height="176" viewBox="0 0 131 176" fill="none" xmlns="http://www.w3.org/2000/svg">
<path fill-rule="evenodd" clip-rule="evenodd" d="M38.0994 0.020958L0.360489 112.35L39.0369 161.962C52.6623 179.925 66.3046 176.373 71.4226 172.351L184.134 93.4932C196.701 85.7586 195.822 74.2998 193.812 69.5372L185.031 53.208L155.672 3.68709L38.0994 0.020958ZM48.5553 64.09L68.0802 50.4296L81.7406 69.9544L62.2158 83.6149L48.5553 64.09ZM96.4806 30.5594L76.9557 44.2199L90.6162 63.7447L110.141 50.0843L96.4806 30.5594ZM96.8255 72.6197L116.35 58.9592L130.011 78.4841L110.486 92.1446L96.8255 72.6197ZM87.9505 78.8291L68.4256 92.4896L82.0861 112.014L101.611 98.354L87.9505 78.8291Z" fill="white"/>
</svg>
